<svg width="60" height="60" viewBox="0 0 60 60" fill="none" xmlns="http://www.w3.org/2000/svg">
<rect width="60" height="60" fill="#1E1E1E"/>
<g id="Frame 2">
<rect width="60" height="60" fill="white"/>
<g id="happy-meal">
<g id="Vector 23">
<path d="M14.086 55L10 25.9583L14.086 14H45.914L50 25.9583L45.2688 55H14.086Z" fill="#EA4B24"/>
<path d="M10 25.9583L14.086 55H45.2688L50 25.9583M10 25.9583H50M10 25.9583L14.086 14H45.914L50 25.9583" stroke="#A5361B" stroke-width="3"/>
</g>
<path id="Vector 24" d="M16 13C16.1439 10.6667 17.7272 6 22.9088 6C28.0904 6 29.5298 10.6667 29.6018 13C29.7457 10.6667 31.3721 6 36.7265 6C42.0808 6 43.1315 10.6667 42.9876 13" stroke="#E5BC01" stroke-width="4"/>
</g>
</g>
</svg>
